<?xml version="1.0" encoding="utf-8"?>
<!-- Generator: Adobe Illustrator 16.0.0, SVG Export Plug-In . SVG Version: 6.00 Build 0)  -->
<!DOCTYPE svg PUBLIC "-//W3C//DTD SVG 1.1//EN" "http://www.w3.org/Graphics/SVG/1.1/DTD/svg11.dtd">
<svg version="1.1" id="pozitiv" xmlns="http://www.w3.org/2000/svg" xmlns:xlink="http://www.w3.org/1999/xlink" x="0px" y="0px"
	 width="100%" height="100%" viewBox="0 0 461.251 174" enable-background="new 0 0 461.251 174" xml:space="preserve">
<g>
	<g>
		<g>
			<path fill="#007B6C" d="M246.929,4.021c-21.809,0-44.031,12.197-44.031,39.174c0,15.401,7.647,24.497,14.781,29.459
				c8.579,6.098,19.328,8.063,29.974,8.063c23.462,0,43.928-12.508,43.928-37.418C291.581,19.113,272.458,4.125,246.929,4.021z
				 M247.653,71.724c-10.543,0-21.189-2.585-28.011-10.543c-4.962-5.581-6.41-12.92-6.41-18.605
				c0-21.603,17.365-29.249,32.56-29.665c19.948-0.518,35.35,10.13,35.35,29.356C281.142,54.669,274.628,71.724,247.653,71.724z
				 M382.435,27.277c0-8.785-4.136-13.539-6.512-15.606c-6.306-5.686-14.058-5.788-20.466-5.891h-49.615v72.972h10.336V49.604
				h35.248l24.703,29.148h13.54l-26.873-30.803C367.655,47.124,382.435,44.746,382.435,27.277z M316.077,41.024v-26.46h40.104
				c4.755,0.104,10.024,0.104,13.333,5.374c1.448,2.172,2.171,4.963,2.171,7.753c0,2.585-0.62,5.374-2.48,7.752
				c-4.137,5.478-11.371,5.581-17.055,5.581H316.077z M387.005,5.78v8.681h29.769v64.291h10.336V14.461h29.872V5.78H387.005z
				 M99.428,42.679c0-12.402-3.929-19.019-6.202-22.327C81.65,3.299,59.634,3.091,51.366,3.091
				c-11.371,0-28.838,1.241-39.898,13.956c-6.099,7.026-9.096,16.227-9.096,25.528c0,14.781,7.134,25.323,16.642,31.215
				c8.166,5.272,18.708,7.442,31.939,7.442c9.096,0,13.541-0.826,19.535-2.377l23.463,11.99l9.302-17.985l-12.61-5.995
				C93.64,63.043,99.428,56.013,99.428,42.679z M51.158,65.108c-12.197,0-21.603-7.338-21.603-22.017
				c0-11.781,7.131-23.565,21.5-23.669c13.333-0.207,21.602,9.406,21.602,23.567C72.657,55.289,65.525,65.108,51.158,65.108z
				 M116.802,78.757h10.129V14.57h63.842V5.784h-73.971V78.757z M145.946,78.757h10.128V43.572h34.699v-8.787h-44.827V78.757z"/>
			<g>
				<path fill="#007B6C" d="M461.251,68.642c0,5.681-4.376,10.11-10.11,10.11s-10.11-4.43-10.11-10.11
					c0-5.68,4.376-10.11,10.11-10.11S461.251,62.962,461.251,68.642z M442.608,68.642c0,4.838,3.613,8.67,8.533,8.67
					c4.864,0,8.534-3.832,8.534-8.67s-3.67-8.67-8.534-8.67C446.221,59.972,442.608,63.804,442.608,68.642z M448.913,74.484h-1.441
					V62.798h4.484c2.637,0,3.806,1.143,3.806,3.234c0,2.066-1.332,2.963-2.935,3.262l3.479,5.19h-1.685l-3.289-5.19h-2.419V74.484z
					 M450.815,68.071c1.766,0,3.506-0.055,3.506-2.039c0-1.631-1.359-2.011-2.772-2.011h-2.636v4.05H450.815z"/>
			</g>
		</g>
	</g>
	<g>
		<path fill="#007B6C" d="M14.209,134.365h15.894c10.293,0,12.261,6.661,12.261,11.151s-1.968,11.049-12.261,11.049h-9.586v13.825
			h-6.308V134.365z M20.517,151.42h9.233c2.826,0,6.307-1.413,6.307-5.953c0-4.743-2.875-5.955-6.206-5.955h-9.334V151.42z"/>
		<path fill="#007B6C" d="M46.327,144.306h5.399v5.045h0.101c0.656-2.774,4.138-5.752,7.619-5.752c1.363,0,1.615,0.102,2.17,0.152
			v5.55c-0.807-0.151-1.665-0.252-2.472-0.252c-3.886,0-7.064,3.128-7.064,8.931v12.411h-5.752V144.306z"/>
		<path fill="#007B6C" d="M62.913,157.322c0-7.921,4.844-13.724,13.168-13.724s13.168,5.803,13.168,13.724
			c0,8.022-4.844,13.774-13.168,13.774S62.913,165.345,62.913,157.322z M83.497,157.322c0-4.489-2.27-9.183-7.416-9.183
			c-5.146,0-7.417,4.693-7.417,9.183c0,4.541,2.271,9.234,7.417,9.234C81.227,166.557,83.497,161.863,83.497,157.322z"/>
		<path fill="#007B6C" d="M93.913,134.365h5.752v5.45h-5.752V134.365z M93.913,144.306h5.752v26.085h-5.752V144.306z"/>
		<path fill="#007B6C" d="M110.062,158.837c0,4.086,2.221,7.72,7.014,7.72c3.381,0,5.349-1.464,6.357-4.34h5.45
			c-1.211,5.701-6.156,8.88-11.807,8.88c-8.225,0-12.765-5.65-12.765-13.724c0-7.416,4.844-13.774,12.613-13.774
			c8.225,0,13.271,7.417,12.312,15.238H110.062z M123.483,155.053c-0.252-3.633-2.623-6.913-6.56-6.913
			c-3.986,0-6.71,3.028-6.862,6.913H123.483z"/>
		<path fill="#007B6C" d="M151.317,153.034c-0.455-3.229-2.725-4.895-5.954-4.895c-2.977,0-7.165,1.615-7.165,9.486
			c0,4.339,1.918,8.931,6.912,8.931c3.381,0,5.651-2.17,6.207-5.954h5.752c-1.06,6.812-5.248,10.494-11.958,10.494
			c-8.174,0-12.664-5.802-12.664-13.471c0-7.871,4.289-14.027,12.866-14.027c6.055,0,11.201,3.028,11.756,9.436H151.317z"/>
		<path fill="#007B6C" d="M159.196,144.306h4.339v-7.82h5.752v7.82h5.197v4.289h-5.197v13.926c0,2.371,0.202,3.582,2.775,3.582
			c0.808,0,1.615,0,2.422-0.202v4.439c-1.261,0.152-2.472,0.303-3.734,0.303c-6.055,0-7.063-2.32-7.215-6.659v-15.389h-4.339
			V144.306z"/>
		<path fill="#007B6C" d="M200.561,164.588c0,1.413,0.303,1.969,1.363,1.969h0.606c0.251,0,0.503-0.051,0.807-0.102v3.986
			c-0.858,0.303-2.675,0.655-3.634,0.655c-2.371,0-3.986-0.807-4.439-3.179c-2.271,2.221-5.955,3.179-9.032,3.179
			c-4.692,0-8.931-2.522-8.931-7.618c0-6.509,5.197-7.568,10.041-8.123c4.188-0.808,7.821-0.252,7.821-3.684
			c0-3.027-3.128-3.532-5.399-3.532c-3.229,0-5.499,1.313-5.752,4.138h-5.751c0.403-6.71,6.055-8.679,11.856-8.679
			c5.097,0,10.444,2.069,10.444,7.569V164.588z M194.809,157.322c-1.766,1.162-4.49,1.111-7.064,1.564
			c-2.472,0.404-4.692,1.312-4.692,4.34c0,2.623,3.28,3.33,5.298,3.33c2.522,0,6.458-1.312,6.458-4.944V157.322z"/>
		<path fill="#007B6C" d="M203.813,144.306h4.339v-7.82h5.752v7.82h5.196v4.289h-5.196v13.926c0,2.371,0.202,3.582,2.775,3.582
			c0.807,0,1.614,0,2.421-0.202v4.439c-1.261,0.152-2.472,0.303-3.734,0.303c-6.054,0-7.063-2.32-7.215-6.659v-15.389h-4.339
			V144.306z"/>
		<path fill="#007B6C" d="M241.597,162.016c0.353,3.38,2.825,4.541,5.902,4.541c2.221,0,5.954-0.454,5.803-3.432
			c-0.151-3.026-4.339-3.381-8.526-4.339c-4.239-0.908-8.376-2.422-8.376-7.72c0-5.701,6.155-7.468,10.898-7.468
			c5.348,0,10.242,2.17,10.898,8.022h-6.004c-0.556-2.775-2.726-3.481-5.298-3.481c-1.665,0-4.743,0.404-4.743,2.674
			c0,2.827,4.238,3.28,8.476,4.188c4.188,0.959,8.427,2.473,8.427,7.619c0,6.206-6.257,8.476-11.655,8.476
			c-6.609,0-11.402-2.926-11.554-9.081H241.597z"/>
		<path fill="#007B6C" d="M285.415,164.588c0,1.413,0.304,1.969,1.363,1.969h0.605c0.252,0,0.504-0.051,0.808-0.102v3.986
			c-0.858,0.303-2.675,0.655-3.634,0.655c-2.371,0-3.986-0.807-4.439-3.179c-2.271,2.221-5.954,3.179-9.031,3.179
			c-4.692,0-8.931-2.522-8.931-7.618c0-6.509,5.196-7.568,10.04-8.123c4.188-0.808,7.821-0.252,7.821-3.684
			c0-3.027-3.128-3.532-5.399-3.532c-3.229,0-5.499,1.313-5.752,4.138h-5.751c0.403-6.71,6.055-8.679,11.856-8.679
			c5.097,0,10.443,2.069,10.443,7.569V164.588z M269.471,133.508c0.555,2.825,2.725,3.835,5.398,3.835
			c2.573,0,4.541-1.262,5.097-3.835h2.876c-0.556,4.794-3.733,7.115-8.375,7.115c-4.643,0-7.519-2.473-7.922-7.115H269.471z
			 M279.664,157.322c-1.766,1.162-4.49,1.111-7.063,1.564c-2.473,0.404-4.692,1.312-4.692,4.34c0,2.623,3.279,3.33,5.298,3.33
			c2.522,0,6.458-1.312,6.458-4.944V157.322z"/>
		<path fill="#007B6C" d="M305.638,144.306h5.398v5.045h0.101c0.656-2.774,4.138-5.752,7.619-5.752c1.362,0,1.614,0.102,2.17,0.152
			v5.55c-0.808-0.151-1.665-0.252-2.473-0.252c-3.886,0-7.064,3.128-7.064,8.931v12.411h-5.751V144.306z"/>
		<path fill="#007B6C" d="M327.899,158.837c0,4.086,2.221,7.72,7.014,7.72c3.381,0,5.349-1.464,6.357-4.34h5.449
			c-1.211,5.701-6.155,8.88-11.807,8.88c-8.225,0-12.765-5.65-12.765-13.724c0-7.416,4.844-13.774,12.613-13.774
			c8.225,0,13.27,7.417,12.312,15.238H327.899z M341.321,155.053c-0.252-3.633-2.623-6.913-6.56-6.913
			c-3.985,0-6.71,3.028-6.862,6.913H341.321z"/>
		<path fill="#007B6C" d="M350.124,144.306h21.191v4.036L356.38,165.85h15.69v4.541h-22.956v-4.036l14.431-17.509h-13.422V144.306z"
			/>
		<path fill="#007B6C" d="M375.794,134.365h5.752v5.45h-5.752V134.365z M375.794,144.306h5.752v26.085h-5.752V144.306z"/>
		<path fill="#007B6C" d="M391.786,162.016c0.354,3.38,2.826,4.541,5.903,4.541c2.221,0,5.953-0.454,5.803-3.432
			c-0.151-3.026-4.34-3.381-8.527-4.339c-4.238-0.908-8.375-2.422-8.375-7.72c0-5.701,6.154-7.468,10.898-7.468
			c5.348,0,10.241,2.17,10.898,8.022h-6.005c-0.555-2.775-2.725-3.481-5.298-3.481c-1.665,0-4.743,0.404-4.743,2.674
			c0,2.827,4.239,3.28,8.477,4.188c4.188,0.959,8.427,2.473,8.427,7.619c0,6.206-6.257,8.476-11.656,8.476
			c-6.608,0-11.401-2.926-11.554-9.081H391.786z"/>
		<path fill="#007B6C" d="M410.993,144.306h4.339v-7.82h5.752v7.82h5.196v4.289h-5.196v13.926c0,2.371,0.202,3.582,2.774,3.582
			c0.808,0,1.615,0,2.422-0.202v4.439c-1.262,0.152-2.473,0.303-3.733,0.303c-6.055,0-7.063-2.32-7.215-6.659v-15.389h-4.339
			V144.306z"/>
		<path fill="#007B6C" d="M434.037,158.837c0,4.086,2.22,7.72,7.014,7.72c3.381,0,5.349-1.464,6.356-4.34h5.45
			c-1.211,5.701-6.156,8.88-11.807,8.88c-8.225,0-12.766-5.65-12.766-13.724c0-7.416,4.844-13.774,12.613-13.774
			c8.225,0,13.271,7.417,12.312,15.238H434.037z M447.458,155.053c-0.252-3.633-2.623-6.913-6.56-6.913
			c-3.985,0-6.71,3.028-6.861,6.913H447.458z"/>
	</g>
</g>
</svg>
